<?xml version="1.0" encoding="UTF-8"?>
<!DOCTYPE svg PUBLIC "-//W3C//DTD SVG 1.1//EN" "http://www.w3.org/Graphics/SVG/1.1/DTD/svg11.dtd">
<!-- Creator: CorelDRAW 2017 -->
<svg xmlns="http://www.w3.org/2000/svg" xml:space="preserve" width="561px" height="358px" version="1.1" shape-rendering="geometricPrecision" text-rendering="geometricPrecision" image-rendering="optimizeQuality" fill-rule="evenodd" clip-rule="evenodd"
viewBox="0 0 558 357"
 xmlns:xlink="http://www.w3.org/1999/xlink">
 <defs>
    <clipPath id="id0" clip-rule="nonzero">
     <path d="M1 197l204 0 0 -197 -204 0 0 197z"/>
    </clipPath>
    <clipPath id="id1" clip-rule="nonzero">
     <path d="M205 197l209 0 0 -197 -209 0 0 197z"/>
    </clipPath>
    <clipPath id="id2" clip-rule="nonzero">
     <path d="M413 268l145 0 0 -268 -145 0 0 268z"/>
    </clipPath>
    <clipPath id="id3" clip-rule="nonzero">
     <path d="M1 357l244 0 0 -160 -244 0 0 160z"/>
    </clipPath>
    <clipPath id="id4" clip-rule="nonzero">
     <path d="M245 357l169 0 0 -160 -169 0 0 160z"/>
    </clipPath>
    <clipPath id="id5" clip-rule="nonzero">
     <path d="M413 357l145 0 0 -90 -145 0 0 90z"/>
    </clipPath>
 </defs>
 <g id="Camada_x0020_1">
  <metadata id="CorelCorpID_0Corel-Layer"/>
  <g id="vecteezy_flat_background_dp1021.eps">
   <g clip-path="url(#id0)">
    <image x="-4" y="0" width="209" height="197" xlink:href="560x358Pixels_Images\560x358Pixels_ImgID1.png"/>
   </g>
   <g clip-path="url(#id1)">
    <image x="205" y="0" width="209" height="197" xlink:href="560x358Pixels_Images\560x358Pixels_ImgID2.png"/>
   </g>
   <g clip-path="url(#id2)">
    <image x="413" y="0" width="153" height="268" xlink:href="560x358Pixels_Images\560x358Pixels_ImgID3.png"/>
   </g>
   <g clip-path="url(#id3)">
    <image x="-4" y="196" width="249" height="166" xlink:href="560x358Pixels_Images\560x358Pixels_ImgID4.png"/>
   </g>
   <g clip-path="url(#id4)">
    <image x="245" y="196" width="169" height="166" xlink:href="560x358Pixels_Images\560x358Pixels_ImgID5.png"/>
   </g>
   <g clip-path="url(#id5)">
    <image x="413" y="267" width="153" height="95" xlink:href="560x358Pixels_Images\560x358Pixels_ImgID6.png"/>
   </g>
  </g>
  <polygon fill="#373435" fill-opacity="0.301961" stroke="#373435" stroke-width="2" stroke-opacity="0.301961" points="1,2 557,2 557,354 1,354 "/>
 </g>
</svg>
